PathFileType	4	(X/Y/Z)	C:/Users/beibeiliu/ov580/test_trc\sequence.1_training_dense_left.trc
DataRate	CameraRate	NumFrames	NumMarkers	Units	OrigDataRate	OrigDataStartFrame	OrigNumFrames
120	120	13	19	mm	120	259	345
Frame#	Time	ThumbCMC			ThumbMCP			ThumbIP			ThumbTip			IndexMCP			IndexPIP			IndexTip			MiddleMCP			MiddlePIP			MiddleTip			RingMCP			RingPIP			RingTip			PinkyMCP			PinkyPIP			PinkyTip			BackHand1			BackHand2			BackHand3	
		X0	Y0	Z0	X1	Y1	Z1	X2	Y2	Z2	X3	Y3	Z3	X4	Y4	Z4	X5	Y5	Z5	X6	Y6	Z6	X7	Y7	Z7	X8	Y8	Z8	X9	Y9	Z9	X10	Y10	Z10	X11	Y11	Z11	X12	Y12	Z12	X13	Y13	Z13	X14	Y14	Z14	X15	Y15	Z15	X16	Y16	Z16	X17	Y17	Z17	X18	Y18	Z18	
258	2.15	-128.851	-2.98589	16.4444	-112.249	-20.5738	-2.68406	-101.713	-31.3524	-22.3493	-92.8241	-42.7805	-37.0793	-117.25	-1.14988	-51.8043	-105.998	-12.2138	-68.0831	-98.6688	-31.4326	-80.9607	-134.686	-12.4568	-61.3101	-124.498	-33.7511	-75.8605	-111.606	-62.6954	-68.3663	-153.428	-23.7883	-58.6799	-141.138	-47.6232	-70.4121	-127.942	-65.1576	-59.5093	-174.116	-33.542	-50.4827	-160.94	-48.9987	-60.8289	-143.003	-65.2926	-58.543	-173.858	-0.327162	-17.2774	-183.742	0.157389	6.31401	-155.59	10.8634	0.625817	
259	2.15833	-129.469	-0.94463	16.0644	-107.442	-14.2026	1.10403	-96.8141	-24.8233	-19.5821	-92.4673	-36.1229	-36.167	-121.625	0.156836	-53.5206	-107.175	-10.1802	-68.975	-92.7354	-25.5647	-79.6111	-134.818	-12.1246	-60.8628	-120.428	-35.2143	-75.9533	-108.331	-57.2407	-67.3494	-150.414	-24.7525	-58.5441	-135.491	-46.4337	-69.187	-121.41	-63.4949	-57.514	-166.902	-32.6912	-48.4328	-154.043	-52.73	-59.7618	-135.468	-67.6643	-51.7517	-175.421	-3.3227	-20.5995	-184.188	-1.23591	3.80454	-158.413	11.1495	-2.20814	
260	2.16667	-131.094	5.09691	18.2931	-109.225	-7.4952	-1.13032	-91.2052	-14.6922	-15.5147	-81.6482	-25.0527	-35.0181	-118.722	6.20128	-50.9119	-103.7	-4.47109	-68.1964	-85.5656	-21.6759	-79.3047	-131.215	-9.05991	-59.7648	-117.711	-28.5236	-74.7946	-99.2999	-51.7485	-65.6032	-148.778	-25.7469	-57.7699	-127.601	-43.6663	-65.4209	-112.188	-58.8669	-54.178	-163.495	-37.9913	-48.9467	-144.352	-51.7142	-57.3798	-125.314	-64.2801	-47.7404	-173.712	-6.9526	-19.0483	-182.213	0.447099	4.94869	-160.162	12.6349	-3.69825	
261	2.175	-134.266	9.30827	14.6907	-109.762	0.424851	2.20487	-93.5489	-4.42299	-14.4033	-80.9603	-12.0458	-26.1143	-123.997	8.5908	-49.5914	-103.912	-1.78179	-68.5891	-86.4513	-10.0753	-75.3765	-129.64	-6.93367	-59.8719	-111.266	-23.2305	-72.5053	-93.143	-43.8653	-63.5123	-143.65	-25.2524	-55.7492	-122.121	-39.0098	-64.2606	-104.043	-52.0482	-52.3666	-158.474	-40.992	-47.4868	-139.912	-48.1008	-54.9163	-116.667	-56.3621	-44.2501	-173.686	-9.83545	-22.5312	-182.994	-2.64965	6.84554	-160.545	13.9863	-4.63949	
262	2.18333	-135.982	16.6086	13.0967	-110.066	12.3928	4.91046	-90.001	9.16958	-12.2365	-74.6999	4.13423	-24.3711	-122.058	13.7389	-52.2643	-103.945	8.2405	-66.6111	-85.1519	-0.799622	-74.1924	-129.44	-5.39306	-57.5964	-105.454	-18.5722	-69.8316	-80.3819	-34.489	-57.4564	-135.244	-24.8439	-55.1876	-116.301	-35.9364	-61.1718	-91.6952	-42.5205	-47.4475	-149.128	-43.1796	-44.7303	-127.778	-49.4786	-50.5292	-104.273	-49.5244	-41.7109	-170.901	-13.3319	-18.2924	-181.675	-7.81602	2.49862	-162.907	13.5027	-3.23088	
263	2.19167	-143.819	20.3095	16.0007	-114.635	20.2761	4.78367	-95.686	20.1792	-10.0058	-80.738	16.0456	-22.5414	-126.103	15.0154	-50.7177	-103.79	15.1737	-66.8894	-81.8719	8.93753	-73.0971	-125.539	-6.41056	-59.0659	-100.183	-13.5812	-66.9951	-73.7179	-19.372	-56.5881	-131.642	-21.5022	-48.6002	-103.314	-32.0787	-55.393	-80.5861	-30.7897	-43.0301	-139.556	-43.044	-38.2365	-117.838	-44.3884	-45.4277	-90.9641	-40.6338	-36.9346	-167.011	-14.6528	-18.3954	-181.78	-12.5153	5.28553	-168.423	8.49671	-8.44146	
264	2.2	-147.118	25.5643	11.0369	-120.558	26.7323	2.7101	-98.6033	29.7772	-12.7777	-84.0006	29.3514	-20.9602	-128.113	20.5348	-49.6271	-108.679	16.9841	-64.1875	-82.7289	18.6777	-71.5415	-123.61	-0.145894	-55.4248	-94.1647	-3.22293	-63.7031	-67.7906	-6.22055	-53.7634	-122.944	-19.4264	-46.9435	-95.7944	-22.3099	-50.6849	-73.0587	-15.2441	-37.7593	-125.002	-40.213	-34.3556	-101.727	-37.4747	-38.4698	-82.0715	-31.8573	-31.8635	-162.136	-21.4708	-15.4038	-178.169	-20.3769	5.20365	-168.155	4.9516	-9.01841	
265	2.20833	-150.48	24.1013	8.90634	-123.567	37.2714	1.45053	-103.833	38.1382	-12.7147	-85.7456	39.7999	-21.5131	-128.063	18.9747	-53.2753	-109.415	21.5891	-65.1224	-81.4827	26.1224	-72.2042	-117.959	-2.21006	-54.6479	-94.4383	4.01621	-63.3378	-65.138	6.45291	-52.6509	-114.38	-21.3007	-43.1358	-88.3661	-13.7034	-46.6529	-69.4327	-5.0839	-32.3474	-112.092	-33.4363	-31.9814	-90.6077	-31.8816	-31.1403	-75.4765	-17.7086	-26.1819	-156.953	-22.9914	-17.355	-170.667	-27.7209	6.0763	-169.579	2.28883	-8.97078	
266	2.21667	-154.737	24.1054	7.94473	-129.294	35.9497	0.718066	-109.733	41.6686	-13.9935	-90.2586	43.5118	-24.9442	-130.93	20.8499	-51.6057	-110.244	26.5054	-65.9793	-88.9934	33.5536	-73.7172	-116.714	-2.31992	-51.3257	-91.5325	9.36148	-61.9431	-60.1088	15.3839	-50.3408	-108.496	-13.3307	-42.9581	-80.9478	-3.89322	-40.9559	-67.5627	10.1449	-27.1995	-105.561	-33.6822	-26.3844	-85.7488	-25.0582	-27.3697	-69.3837	-5.15788	-21.0316	-150.904	-28.2818	-14.2363	-162.735	-30.3692	4.31898	-166.236	0.440877	-11.3973	
267	2.225	-156.371	22.4436	4.90733	-132.32	35.1726	-5.42849	-114.223	45.6991	-19.0031	-94.6997	50.1433	-30.0749	-129.813	14.5393	-52.4427	-109.164	22.9753	-69.4423	-91.4702	33.7635	-76.1486	-112.167	-0.404463	-55.1225	-88.0177	9.56387	-63.0733	-62.3435	22.6071	-53.5532	-105.061	-12.7863	-40.2761	-81.4452	-0.726705	-41.5933	-66.8791	15.2808	-26.2841	-100.419	-31.1778	-23.8051	-79.7348	-17.3917	-25.3736	-67.7768	1.46327	-17.9636	-142.497	-28.8988	-16.1895	-159.488	-31.5578	4.93143	-165.587	-8.65268	-9.14084	
268	2.23333	-158.393	16.0491	2.4412	-139.332	36.1447	-5.31835	-123.132	45.846	-17.7624	-106.251	51.8212	-28.5012	-130.36	13.5087	-55.8096	-113.696	26.2021	-73.4604	-92.5717	34.6476	-80.5673	-114.62	-1.43382	-54.5518	-87.7471	8.27324	-63.5473	-65.8699	24.7788	-58.4363	-102.341	-14.1101	-39.8607	-77.0085	3.41164	-40.2699	-68.7717	19.9412	-27.6144	-94.5747	-25.8222	-26.5417	-76.3268	-14.9238	-26.145	-68.633	2.59767	-23.6448	-140.393	-31.9526	-14.5559	-157.298	-32.8741	5.44758	-162.16	-11.2573	-11.856	
269	2.24167	-162.965	13.6426	2.93715	-141.705	33.6228	-12.1032	-127.489	46.1379	-27.4174	-111.867	52.7886	-36.2067	-133.354	10.157	-55.6406	-114.064	20.03	-74.3002	-96.0956	32.6559	-84.7194	-111.377	-4.73218	-54.9881	-90.7598	7.07661	-66.5986	-66.6142	28.1773	-60.5937	-99.2669	-12.0911	-42.5003	-80.7264	4.61786	-42.8663	-69.2802	23.4704	-27.4627	-93.5667	-26.5425	-25.1959	-75.7845	-13.1658	-30.3756	-65.0199	7.93919	-27.0622	-133.672	-34.3841	-16.7734	-153.345	-39.787	4.97674	-162.389	-18.2755	-10.8006	
270	2.25	-164.69	9.63628	2.46334	-148.34	31.3942	-13.2954	-136.014	44.2875	-26.4807	-120.206	53.5686	-41.1639	-135.529	7.16717	-58.472	-121.478	19.3821	-77.3063	-100.794	35.0408	-89.4328	-111.109	-5.20371	-58.2838	-90.7955	10.3338	-69.1496	-72.9338	30.925	-67.6537	-100.173	-12.7661	-43.4555	-78.0867	6.8027	-43.9676	-72.3046	28.9909	-28.2291	-90.8207	-27.3483	-26.9636	-75.437	-14.8928	-32.2831	-62.9302	4.2532	-36.8909	-134.076	-34.8129	-16.1864	-150.874	-41.1559	4.6816	-159.293	-19.1052	-13.6418	
